{
  "accessors": [
    {
      "bufferView": 2,
      "componentType": 5126,
      "count": 5558,
      "max": [
        0.8783959746360779,
        4.188321113586426,
        0.009108000434935093
      ],
      "min": [
        0.45979300141334534,
        3.087660074234009,
        -0.30801400542259216
      ],
      "type": "VEC3"
    },
    {
      "bufferView": 2,
      "byteOffset": 66696,
      "componentType": 5126,
      "count": 5558,
      "max": [
        0.9999982118606567,
        0.9999571442604065,
        0.9998447895050049
      ],
      "min": [
        -0.9998787641525269,
        -0.9994436502456665,
        -0.9999146461486816
      ],
      "type": "VEC3"
    },
    {
      "bufferView": 3,
      "componentType": 5126,
      "count": 5558,
      "max": [
        0.998894989490509,
        0.9999923706054688,
        0.9998741149902344,
        1.0
      ],
      "min": [
        -0.9999580383300781,
        -0.9999135136604309,
        -0.9998012781143188,
        -1.0
      ],
      "type": "VEC4"
    },
    {
      "bufferView": 1,
      "componentType": 5126,
      "count": 5558,
      "max": [
        0.9928380250930786,
        0.9998409748077393
      ],
      "min": [
        0.00035799999022856355,
        4.199999966658652e-05
      ],
      "type": "VEC2"
    },
    {
      "bufferView": 0,
      "componentType": 5125,
      "count": 30000,
      "type": "SCALAR"
    }
  ],
  "asset": {
    "extras": {
      "author": "Nik (https://sketchfab.com/nikska)",
      "license": "CC-BY-NC-ND-4.0 (http://creativecommons.org/licenses/by-nc-nd/4.0/)",
      "source": "https://sketchfab.com/3d-models/slightly-drunk-sailor-e92bc16fd94f494e9d43afa9a79ef953",
      "title": "Slightly drunk sailor"
    },
    "generator": "Sketchfab-12.68.0",
    "version": "2.0"
  },
  "bufferViews": [
    {
      "buffer": 0,
      "byteLength": 120000,
      "name": "floatBufferViews",
      "target": 34963
    },
    {
      "buffer": 0,
      "byteLength": 44464,
      "byteOffset": 120000,
      "byteStride": 8,
      "name": "floatBufferViews",
      "target": 34962
    },
    {
      "buffer": 0,
      "byteLength": 133392,
      "byteOffset": 164464,
      "byteStride": 12,
      "name": "floatBufferViews",
      "target": 34962
    },
    {
      "buffer": 0,
      "byteLength": 88928,
      "byteOffset": 297856,
      "byteStride": 16,
      "name": "floatBufferViews",
      "target": 34962
    }
  ],
  "buffers": [
    {
      "byteLength": 386784,
      "uri": "scene.bin"
    }
  ],
  "images": [
    {
      "uri": "textures/drunk_baseColor.jpeg"
    },
    {
      "uri": "textures/drunk_metallicRoughness.png"
    },
    {
      "uri": "textures/drunk_normal.png"
    }
  ],
  "materials": [
    {
      "doubleSided": true,
      "name": "drunk",
      "normalTexture": {
        "index": 2
      },
      "occlusionTexture": {
        "index": 1
      },
      "pbrMetallicRoughness": {
        "baseColorTexture": {
          "index": 0
        },
        "metallicFactor": 0.0,
        "metallicRoughnessTexture": {
          "index": 1
        }
      }
    }
  ],
  "meshes": [
    {
      "name": "Object_0",
      "primitives": [
        {
          "attributes": {
            "NORMAL": 1,
            "POSITION": 0,
            "TANGENT": 2,
            "TEXCOORD_0": 3
          },
          "indices": 4,
          "material": 0,
          "mode": 4
        }
      ]
    }
  ],
  "nodes": [
    {
      "children": [
        1
      ],
      "matrix": [
        1.0,
        0.0,
        0.0,
        0.0,
        0.0,
        -0.998638391494751,
        -0.05216626822948478,
        0.0,
        0.0,
        0.05216626822948478,
        -0.998638391494751,
        0.0,
        0.0,
        3.69988775253296,
        -3.5988235473632804,
        1.0
      ],
      "name": "Sketchfab_model"
    },
    {
      "children": [
        2
      ],
      "name": "drunk.obj.cleaner.materialmerger.gles"
    },
    {
      "mesh": 0,
      "name": "Object_2"
    }
  ],
  "samplers": [
    {
      "magFilter": 9729,
      "minFilter": 9987,
      "wrapS": 10497,
      "wrapT": 10497
    }
  ],
  "scene": 0,
  "scenes": [
    {
      "name": "Sketchfab_Scene",
      "nodes": [
        0
      ]
    }
  ],
  "textures": [
    {
      "sampler": 0,
      "source": 0
    },
    {
      "sampler": 0,
      "source": 1
    },
    {
      "sampler": 0,
      "source": 2
    }
  ]
}
